<?xml version="1.0" encoding="UTF-8"?>
<svg id="_레이어_2" data-name="레이어_2" xmlns="http://www.w3.org/2000/svg" viewBox="0 0 5402.97 826.49">
  <defs>
    <style>
      .cls-1 {
        fill: #2d265a;
      }
    </style>
  </defs>
  <g id="_레이어_1-2" data-name="레이어_1">
    <g>
      <path class="cls-1" d="M3994.1,826.25c-107.78-1.87-203.98-35.23-286.2-106.24-5.33-4.63-9.35-7.64-2.73-15.49,31.7-37.67,62.83-75.8,93.76-114.08,6.09-7.56,9.67-9.26,18.41-2.19,42.51,34.38,90.06,59.25,144.12,69.7,34.47,6.7,69.09,5.89,102.42-7.07,22.11-8.58,36.58-23.94,40.11-48.24,3.82-26.05-6.34-45.68-27.59-60.19-22.64-15.49-48.2-24.95-73.12-35.68-43.89-18.82-88.32-36.46-131.8-56.25-47.51-21.66-87.38-53.45-113.55-99.37-46.66-81.77-39.67-190.32,35.93-265.43,51.45-51.09,114.77-76.41,186.02-83.32,99.62-9.63,189.43,15.85,268.93,76.9q30.36,23.29,6.99,52.87c-21.54,27.19-43.69,53.93-64.46,81.69-7.32,9.76-12.48,9.27-21.3,2.97-38.29-27.31-79.62-47.59-127.21-52.14-26.74-2.56-53.4-2.4-78.93,7.88-23.65,9.47-39.1,25.48-40.76,52.06-1.75,27.39,11.99,44.95,35.6,56.7,58.4,29.1,119.85,50.92,180.17,75.43,45.32,18.37,87.18,41.9,117.99,81.08,54.42,69.26,59.05,176.63,10.85,257.02-40.97,68.36-104.57,104-180,121.56-30.73,7.15-61.9,10.65-93.64,9.83Z"/>
      <path class="cls-1" d="M5145.85,825.88c-80.88.61-152.32-19.22-216.38-64.17-58.2-40.89-97.78-96.08-124.69-161.19-33.33-80.71-38.12-164.6-28.37-250.15,7.8-69.09,29.34-133.59,68.85-191.06,57.79-84.21,137.94-135.26,238.24-153.1,115.83-20.6,217.03,10.16,303.23,90.51,5.73,5.33,6.3,8.62,1.34,14.63-29.75,35.68-59.42,71.41-88.44,107.62-6.79,8.54-10.28,3.62-15.12-.85-21.54-19.96-45.6-35.89-73.56-45.56-76.73-26.46-159.19,5.29-203.29,78.6-28.61,47.51-39.22,99.74-39.5,154.6-.32,56.41,6.18,111.32,32.76,162.32,42.31,81.28,132.41,114.93,217.92,81.65,29.83-11.58,55.93-28.65,77.47-52.06,7.8-8.46,10.89-6.83,17.39,1.14,27.92,34.1,56.45,67.75,85.27,101.12,5.89,6.91,4.96,10.89-.73,17.15-53.97,59.01-120.06,94.7-199.47,105.75-18.69,2.6-37.31,3.66-52.92,3.05Z"/>
      <path class="cls-1" d="M4625.06,413.49c0,128.1-.16,256.21.25,384.27.04,10.93-2.52,14.14-13.82,14.02-53.45-.65-106.93-.73-160.37,0-13.62.16-18.01-2.64-17.97-17.4.57-206.42.41-412.84.41-619.3,0-49.26.16-98.52-.25-147.78-.08-9.51,2.2-13.01,12.44-12.93,55.84.49,111.68.49,167.52.04,10.61-.08,11.95,4.31,11.95,13.45-.29,128.51-.17,257.1-.17,385.61Z"/>
      <polygon class="cls-1" points="0 14.91 0 811.29 502.74 811.29 502.74 650.75 190.13 650.75 190.13 14.91 0 14.91"/>
      <rect class="cls-1" x="637.92" y="14.91" width="190.12" height="796.38"/>
      <polygon class="cls-1" points="912.54 14.91 1149.12 811.29 1381.5 811.29 1620.15 14.91 1425.85 14.91 1266.36 631.74 1111.12 14.91 912.54 14.91"/>
      <path class="cls-1" d="M2000.4,14.91v796.38h175.33s10.57-304.21-27.47-551.35l175.33,485.83h103.52l175.33-485.83s-40.16,316.85-21.14,551.35h179.56V14.91h-211.22l-168.99,485.83L2207.44,14.91h-207.03Z"/>
      <path class="cls-1" d="M2938.3,14.91v462.63s-14.8,348.51,314.73,348.51c0,0,325.3,27.47,325.3-348.51V14.91h-183.75v462.63s8.33,183.75-136.31,183.75-132.01-183.75-132.01-183.75V14.91h-187.97Z"/>
    </g>
  </g>
</svg>