<svg width="78" height="78" viewBox="0 0 78 78" fill="none" xmlns="http://www.w3.org/2000/svg">
<path d="M31.5942 7.32092C31.5942 10.2571 29.2118 12.6418 26.2785 12.6418C23.3453 12.6418 20.9629 10.2571 20.9629 7.32092C20.9629 4.38478 23.3453 2 26.2785 2C29.2118 2 31.5942 4.38478 31.5942 7.32092Z" stroke="#2D265A" stroke-width="2.4" stroke-linecap="round" stroke-linejoin="round"/>
<path d="M29.2637 11.7251L33.8494 13.253C35.1235 13.6781 35.9796 14.8672 35.9796 16.209V25.5157" stroke="#2D265A" stroke-width="2.4" stroke-linecap="round" stroke-linejoin="round"/>
<path d="M16.5771 26.6981V16.209C16.5771 14.8672 17.4332 13.6781 18.7074 13.253L23.2931 11.7251" stroke="#2D265A" stroke-width="2.4" stroke-linecap="round" stroke-linejoin="round"/>
<path d="M31.5918 17.8298V25.5156" stroke="#2D265A" stroke-width="2.4" stroke-linecap="round" stroke-linejoin="round"/>
<path d="M20.9629 17.8298V25.6817" stroke="#2D265A" stroke-width="2.4" stroke-linecap="round" stroke-linejoin="round"/>
<path d="M57.4946 7.32092C57.4946 10.2571 55.1122 12.6418 52.179 12.6418C49.2457 12.6418 46.8633 10.2571 46.8633 7.32092C46.8633 4.38478 49.2457 2 52.179 2C55.1122 2 57.4946 4.38478 57.4946 7.32092Z" stroke="#2D265A" stroke-width="2.4" stroke-linecap="round" stroke-linejoin="round"/>
<path d="M55.1641 11.7251L59.7497 13.253C61.0239 13.6781 61.88 14.8672 61.88 16.209V26.718" stroke="#2D265A" stroke-width="2.4" stroke-linecap="round" stroke-linejoin="round"/>
<path d="M42.4775 25.5157V16.209C42.4775 14.8672 43.3336 13.6781 44.6078 13.253L49.1935 11.7251" stroke="#2D265A" stroke-width="2.4" stroke-linecap="round" stroke-linejoin="round"/>
<path d="M57.4961 17.8298V25.6817" stroke="#2D265A" stroke-width="2.4" stroke-linecap="round" stroke-linejoin="round"/>
<path d="M46.8633 17.8298V25.5156" stroke="#2D265A" stroke-width="2.4" stroke-linecap="round" stroke-linejoin="round"/>
<path d="M26.2785 63.6589C29.2143 63.6589 31.5942 61.2767 31.5942 58.338C31.5942 55.3993 29.2143 53.0171 26.2785 53.0171C23.3428 53.0171 20.9629 55.3993 20.9629 58.338C20.9629 61.2767 23.3428 63.6589 26.2785 63.6589Z" stroke="#2D265A" stroke-width="2.4" stroke-linecap="round" stroke-linejoin="round"/>
<path d="M29.2637 62.7422L33.8494 64.27C35.1235 64.6952 35.9796 65.8843 35.9796 67.2261V76.5328" stroke="#2D265A" stroke-width="2.4" stroke-linecap="round" stroke-linejoin="round"/>
<path d="M16.5771 76.5262V67.2195C16.5771 65.8777 17.4332 64.6886 18.7074 64.2635L23.2931 62.7356" stroke="#2D265A" stroke-width="2.4" stroke-linecap="round" stroke-linejoin="round"/>
<path d="M31.5918 68.8469V76.5261" stroke="#2D265A" stroke-width="2.4" stroke-linecap="round" stroke-linejoin="round"/>
<path d="M20.9629 68.8469V76.5327" stroke="#2D265A" stroke-width="2.4" stroke-linecap="round" stroke-linejoin="round"/>
<path d="M52.179 63.6589C55.1147 63.6589 57.4946 61.2767 57.4946 58.338C57.4946 55.3993 55.1147 53.0171 52.179 53.0171C49.2432 53.0171 46.8633 55.3993 46.8633 58.338C46.8633 61.2767 49.2432 63.6589 52.179 63.6589Z" stroke="#2D265A" stroke-width="2.4" stroke-linecap="round" stroke-linejoin="round"/>
<path d="M57.4961 68.8469V76.5327" stroke="#2D265A" stroke-width="2.4" stroke-linecap="round" stroke-linejoin="round"/>
<path d="M46.8633 68.8469V76.5327" stroke="#2D265A" stroke-width="2.4" stroke-linecap="round" stroke-linejoin="round"/>
<path d="M16.5752 67.6645C8.09404 64.7284 2.00195 56.6706 2.00195 47.1846C2.00195 35.2208 11.6909 25.5156 23.6495 25.5156H54.8135C66.7655 25.5156 76.4611 35.2142 76.4611 47.1846C76.4611 56.6706 70.369 64.735 61.8878 67.6645" stroke="#2D265A" stroke-width="2.4" stroke-linecap="round" stroke-linejoin="round"/>
<path d="M42.4755 68.8469H35.9785" stroke="#2D265A" stroke-width="2.4" stroke-linecap="round" stroke-linejoin="round"/>
<path d="M55.1641 62.7422L59.7497 64.27C61.0239 64.6952 61.88 65.8843 61.88 67.2261V76.5328" stroke="#2D265A" stroke-width="2.4" stroke-linecap="round" stroke-linejoin="round"/>
<path d="M42.4775 76.5328V67.2261C42.4775 65.8843 43.3336 64.6952 44.6078 64.27L49.1935 62.7422" stroke="#2D265A" stroke-width="2.4" stroke-linecap="round" stroke-linejoin="round"/>
</svg>
