<svg width="74" height="78" viewBox="0 0 74 78" fill="none" xmlns="http://www.w3.org/2000/svg">
<path d="M37.2217 18.7599C39.0666 18.7599 40.9181 19.2448 42.5639 20.2147C45.8621 22.1544 49.9567 22.1544 53.255 20.2147C54.9074 19.2448 56.7523 18.7599 58.5972 18.7599V2C56.7523 2 54.9008 2.48493 53.255 3.45479C49.9567 5.3945 45.8621 5.3945 42.5639 3.45479C40.9115 2.48493 39.0666 2 37.2217 2" stroke="#2D265A" stroke-width="2.4" stroke-linecap="round" stroke-linejoin="round"/>
<path d="M37.2217 2V32.2648" stroke="#2D265A" stroke-width="2.4" stroke-linecap="round" stroke-linejoin="round"/>
<path d="M60.2774 58.7431V45.5038H46.1023V32.2646H28.3436V45.5038H14.1685V58.7431H2V76.526H72.4526V58.7431H60.2774Z" stroke="#2D265A" stroke-width="2.4" stroke-linecap="round" stroke-linejoin="round"/>
<path d="M28.3447 45.5042H46.1034" stroke="#2D265A" stroke-width="2.4" stroke-linecap="round" stroke-linejoin="round"/>
<path d="M14.168 58.7432H60.2769" stroke="#2D265A" stroke-width="2.4" stroke-linecap="round" stroke-linejoin="round"/>
</svg>
