<svg width="81" height="81" viewBox="0 0 81 81" fill="none" xmlns="http://www.w3.org/2000/svg">
<path d="M30.1388 27.2681C30.1388 28.8623 28.8447 30.1577 27.252 30.1577C25.6593 30.1577 24.3652 28.8623 24.3652 27.2681C24.3652 25.6738 25.6593 24.3784 27.252 24.3784C28.8447 24.3784 30.1388 25.6738 30.1388 27.2681Z" stroke="#2D265A" stroke-width="2.4" stroke-linecap="round" stroke-linejoin="round"/>
<path d="M7.72243 27.2681H4.37109" stroke="#2D265A" stroke-width="2.4" stroke-linecap="round" stroke-linejoin="round"/>
<path d="M46.7754 27.2681H50.1267" stroke="#2D265A" stroke-width="2.4" stroke-linecap="round" stroke-linejoin="round"/>
<path d="M27.2539 7.72476V4.37012" stroke="#2D265A" stroke-width="2.4" stroke-linecap="round" stroke-linejoin="round"/>
<path d="M27.2539 46.8181V50.1728" stroke="#2D265A" stroke-width="2.4" stroke-linecap="round" stroke-linejoin="round"/>
<path d="M29.2959 25.2286L37.3723 17.1443" stroke="#2D265A" stroke-width="2.4" stroke-linecap="round" stroke-linejoin="round"/>
<path d="M24.3576 27.2681H12.9365" stroke="#2D265A" stroke-width="2.4" stroke-linecap="round" stroke-linejoin="round"/>
<path d="M58.8282 55.9917C58.8282 57.586 57.5342 58.8813 55.9415 58.8813C54.3488 58.8813 53.0547 57.586 53.0547 55.9917C53.0547 54.3974 54.3488 53.1021 55.9415 53.1021C57.5342 53.1021 58.8282 54.3974 58.8282 55.9917Z" stroke="#2D265A" stroke-width="2.4" stroke-linecap="round" stroke-linejoin="round"/>
<path d="M36.4175 55.9917H33.0596" stroke="#2D265A" stroke-width="2.4" stroke-linecap="round" stroke-linejoin="round"/>
<path d="M75.4736 55.9917H78.825" stroke="#2D265A" stroke-width="2.4" stroke-linecap="round" stroke-linejoin="round"/>
<path d="M55.9395 36.4418V33.0872" stroke="#2D265A" stroke-width="2.4" stroke-linecap="round" stroke-linejoin="round"/>
<path d="M55.9395 75.5349V78.8896" stroke="#2D265A" stroke-width="2.4" stroke-linecap="round" stroke-linejoin="round"/>
<path d="M53.0549 55.9917H41.6338" stroke="#2D265A" stroke-width="2.4" stroke-linecap="round" stroke-linejoin="round"/>
<path d="M71.4562 26.6836L69.2795 31.7388L64.2227 29.56" stroke="#2D265A" stroke-width="2.4" stroke-linecap="round" stroke-linejoin="round"/>
<path d="M49.5889 32.1375C52.281 19.778 44.454 7.57413 32.1068 4.87934C19.7595 2.18454 7.56766 10.0193 4.87552 22.3788C2.18339 34.7382 10.0104 46.9421 22.3577 49.6369C34.7049 52.3317 46.8968 44.497 49.5889 32.1375Z" stroke="#2D265A" stroke-width="2.4" stroke-linecap="round" stroke-linejoin="round"/>
<path d="M49.0862 34.1301C51.2496 33.4525 53.5524 33.0872 55.9415 33.0872C68.577 33.0872 78.8234 43.3437 78.8234 55.9917C78.8234 68.6397 68.577 78.8963 55.9415 78.8963C43.306 78.8963 33.0596 68.6397 33.0596 55.9917C33.0596 53.6003 33.4246 51.2952 34.1015 49.1296" stroke="#2D265A" stroke-width="2.4" stroke-linecap="round" stroke-linejoin="round"/>
<path d="M57.9854 58.0378L66.0617 66.1222" stroke="#2D265A" stroke-width="2.4" stroke-linecap="round" stroke-linejoin="round"/>
<path d="M51.4736 13.9226C58.5214 16.4402 64.3348 21.5818 67.7259 28.1649" stroke="#2D265A" stroke-width="2.4" stroke-linecap="round" stroke-linejoin="round"/>
<path d="M11.7373 56.5765L13.914 51.5212L18.9709 53.7001" stroke="#2D265A" stroke-width="2.4" stroke-linecap="round" stroke-linejoin="round"/>
<path d="M31.7201 69.3372C24.6723 66.8196 18.8589 61.678 15.4678 55.095" stroke="#2D265A" stroke-width="2.4" stroke-linecap="round" stroke-linejoin="round"/>
</svg>
