<svg width="78" height="78" viewBox="0 0 78 78" fill="none" xmlns="http://www.w3.org/2000/svg">
<path d="M61.4937 51.5558C66.0201 51.5558 69.6895 47.8828 69.6895 43.3519C69.6895 38.821 66.0201 35.1479 61.4937 35.1479C56.9672 35.1479 53.2979 38.821 53.2979 43.3519C53.2979 47.8828 56.9672 51.5558 61.4937 51.5558Z" stroke="#2D265A" stroke-width="2.4" stroke-linecap="round" stroke-linejoin="round"/>
<path d="M66.1006 50.1406L73.1749 52.4922C75.1326 53.1432 76.4599 54.9833 76.4599 57.0492V76.526" stroke="#2D265A" stroke-width="2.4" stroke-linecap="round" stroke-linejoin="round"/>
<path d="M50.3594 52.3128L56.8961 50.1406" stroke="#2D265A" stroke-width="2.4" stroke-linecap="round" stroke-linejoin="round"/>
<path d="M69.6904 59.5537V76.5262" stroke="#2D265A" stroke-width="2.4" stroke-linecap="round" stroke-linejoin="round"/>
<path d="M16.9556 51.5558C21.482 51.5558 25.1514 47.8828 25.1514 43.3519C25.1514 38.821 21.482 35.1479 16.9556 35.1479C12.4291 35.1479 8.75977 38.821 8.75977 43.3519C8.75977 47.8828 12.4291 51.5558 16.9556 51.5558Z" stroke="#2D265A" stroke-width="2.4" stroke-linecap="round" stroke-linejoin="round"/>
<path d="M21.5625 50.1406L28.0926 52.3128" stroke="#2D265A" stroke-width="2.4" stroke-linecap="round" stroke-linejoin="round"/>
<path d="M1.99902 76.526V57.0492C1.99902 54.9833 3.31965 53.1432 5.284 52.4922L12.3583 50.1406" stroke="#2D265A" stroke-width="2.4" stroke-linecap="round" stroke-linejoin="round"/>
<path d="M8.76758 59.5537V76.5262" stroke="#2D265A" stroke-width="2.4" stroke-linecap="round" stroke-linejoin="round"/>
<path d="M58.4222 24.7318V17.6971H53.883C53.5113 16.136 52.8942 14.6679 52.0713 13.3327L55.2832 10.1176L50.3126 5.14207L47.1007 8.35721C45.7668 7.5335 44.3002 6.91571 42.7407 6.54371V2H35.7128V6.55036C34.1533 6.92236 32.6867 7.54014 31.3528 8.35721L28.1342 5.13543L23.1636 10.1109L26.3822 13.3327C25.5659 14.6679 24.9488 16.136 24.5771 17.6971H20.0312V24.7318" stroke="#2D265A" stroke-width="2.4" stroke-linecap="round" stroke-linejoin="round"/>
<path d="M47.6846 24.7319V21.2179C47.6846 16.5413 43.8953 12.7549 39.23 12.7549C34.5647 12.7549 30.7754 16.5479 30.7754 21.2179V24.7319" stroke="#2D265A" stroke-width="2.4" stroke-linecap="round" stroke-linejoin="round"/>
<path d="M16.9561 31.2353V24.7319H61.4922V31.2353" stroke="#2D265A" stroke-width="2.4" stroke-linecap="round" stroke-linejoin="round"/>
<path d="M39.2295 31.2352V21.2112" stroke="#2D265A" stroke-width="2.4" stroke-linecap="round" stroke-linejoin="round"/>
<path d="M39.229 51.5558C43.7554 51.5558 47.4249 47.8828 47.4249 43.3519C47.4249 38.821 43.7554 35.1479 39.229 35.1479C34.7026 35.1479 31.0332 38.821 31.0332 43.3519C31.0332 47.8828 34.7026 51.5558 39.229 51.5558Z" stroke="#2D265A" stroke-width="2.4" stroke-linecap="round" stroke-linejoin="round"/>
<path d="M43.8271 50.1406L50.9015 52.4922C52.8592 53.1432 54.1864 54.9833 54.1864 57.0492V76.526" stroke="#2D265A" stroke-width="2.4" stroke-linecap="round" stroke-linejoin="round"/>
<path d="M24.2725 76.526V57.0492C24.2725 54.9833 25.5931 53.1432 27.5574 52.4922L34.6317 50.1406" stroke="#2D265A" stroke-width="2.4" stroke-linecap="round" stroke-linejoin="round"/>
<path d="M47.417 59.5537V76.5262" stroke="#2D265A" stroke-width="2.4" stroke-linecap="round" stroke-linejoin="round"/>
<path d="M31.0332 59.5537V76.5262" stroke="#2D265A" stroke-width="2.4" stroke-linecap="round" stroke-linejoin="round"/>
</svg>
