<svg width="78" height="78" viewBox="0 0 78 78" fill="none" xmlns="http://www.w3.org/2000/svg">
<path d="M21.5327 24.3333C21.2208 23.0047 21.0615 21.6163 21.0615 20.1881C21.0615 10.1441 29.1976 2 39.2317 2C49.2658 2 57.4019 10.1441 57.4019 20.1881C57.4019 21.6163 57.2359 23.0047 56.9307 24.3333" stroke="#2D265A" stroke-width="2.4" stroke-linecap="round" stroke-linejoin="round"/>
<path d="M33.9724 33.6864C31.6564 30.7503 29.4531 26.3394 29.4531 20.1881C29.4531 7.22793 39.2217 2 39.2217 2C39.2217 2 48.9904 7.23457 48.9904 20.1881C48.9904 26.3394 46.7871 30.7503 44.4711 33.6864" stroke="#2D265A" stroke-width="2.4" stroke-linecap="round" stroke-linejoin="round"/>
<path d="M39.2217 2V34.3773" stroke="#2D265A" stroke-width="2.4" stroke-linecap="round" stroke-linejoin="round"/>
<path d="M56.3983 14.2295H22.0488" stroke="#2D265A" stroke-width="2.4" stroke-linecap="round" stroke-linejoin="round"/>
<path d="M55.1117 26.1467H23.3438" stroke="#2D265A" stroke-width="2.4" stroke-linecap="round" stroke-linejoin="round"/>
<path d="M76.453 28.8904L61.6142 43.7438C60.0613 45.2982 59.3513 47.5036 59.703 49.6759C60.0547 51.8481 59.3446 54.0535 57.7917 55.6079L55.2832 58.1189" stroke="#2D265A" stroke-width="2.4" stroke-linecap="round" stroke-linejoin="round"/>
<path d="M44.7666 47.5898L56.7849 59.62C57.8932 60.7294 57.8932 62.5296 56.7849 63.639C55.6767 64.7483 53.8782 64.7483 52.77 63.639" stroke="#2D265A" stroke-width="2.4" stroke-linecap="round" stroke-linejoin="round"/>
<path d="M43.2598 54.1133L52.7696 63.6325C53.8778 64.7418 53.8778 66.5421 52.7696 67.6514C51.6613 68.7608 49.8629 68.7608 48.7546 67.6514" stroke="#2D265A" stroke-width="2.4" stroke-linecap="round" stroke-linejoin="round"/>
<path d="M39.2432 58.1321L48.753 67.6513C49.8612 68.7606 49.8612 70.5608 48.753 71.6702C47.6447 72.7796 45.8463 72.7796 44.738 71.6702" stroke="#2D265A" stroke-width="2.4" stroke-linecap="round" stroke-linejoin="round"/>
<path d="M14.0439 16.8401L28.8827 31.6935C30.4356 33.2479 32.6388 33.9587 34.8089 33.6067C36.3485 33.3542 37.9014 33.6399 39.2287 34.3839" stroke="#2D265A" stroke-width="2.4" stroke-linecap="round" stroke-linejoin="round"/>
<path d="M39.2245 74.1946L40.7243 75.6959C41.8326 76.8052 43.631 76.8052 44.7393 75.6959C45.8475 74.5865 45.8475 72.7863 44.7393 71.6769L41.2353 68.1695L35.2295 62.1577" stroke="#2D265A" stroke-width="2.4" stroke-linecap="round" stroke-linejoin="round"/>
<path d="M2 28.8904L16.8387 43.7438C18.3916 45.2982 19.1017 47.5036 18.75 49.6759C18.3983 51.8481 19.1084 54.0535 20.6612 55.6079L23.1698 58.1189" stroke="#2D265A" stroke-width="2.4" stroke-linecap="round" stroke-linejoin="round"/>
<path d="M33.716 75.6891C32.6077 74.5798 32.6077 72.7796 33.716 71.6702L35.2157 70.1689C36.324 69.0596 38.1225 69.0596 39.2307 70.1689C40.339 71.2783 40.339 73.0785 39.2307 74.1879L37.7309 75.6891C36.6226 76.7985 34.8242 76.7985 33.716 75.6891Z" stroke="#2D265A" stroke-width="2.4" stroke-linecap="round" stroke-linejoin="round"/>
<path d="M29.6994 71.6703C28.5911 70.561 28.5911 68.7608 29.6994 67.6514L31.1992 66.1501C32.3074 65.0408 34.1059 65.0408 35.2141 66.1501C36.3224 67.2595 36.3224 69.0597 35.2141 70.1691L33.7143 71.6703C32.6061 72.7797 30.8076 72.7797 29.6994 71.6703Z" stroke="#2D265A" stroke-width="2.4" stroke-linecap="round" stroke-linejoin="round"/>
<path d="M25.6857 67.6513C24.5774 66.542 24.5774 64.7417 25.6857 63.6324L27.1855 62.1311C28.2938 61.0217 30.0922 61.0217 31.2004 62.1311C32.3087 63.2404 32.3087 65.0407 31.2004 66.15L29.7006 67.6513C28.5924 68.7607 26.7939 68.7607 25.6857 67.6513Z" stroke="#2D265A" stroke-width="2.4" stroke-linecap="round" stroke-linejoin="round"/>
<path d="M21.6691 63.6391C20.5608 62.5297 20.5608 60.7295 21.6691 59.6202L23.1689 58.1189C24.2772 57.0095 26.0756 57.0095 27.1839 58.1189C28.2921 59.2282 28.2921 61.0285 27.1839 62.1378L25.6841 63.6391C24.5758 64.7484 22.7773 64.7484 21.6691 63.6391Z" stroke="#2D265A" stroke-width="2.4" stroke-linecap="round" stroke-linejoin="round"/>
<path d="M64.4084 16.8401L49.5696 31.6935C48.0167 33.2479 45.8135 33.9587 43.6434 33.6067C41.4733 33.2546 39.2701 33.9654 37.7172 35.5198L24.6437 48.6062C23.5354 49.7156 23.5354 51.5158 24.6437 52.6251C25.752 53.7345 27.5504 53.7345 28.6587 52.6251L35.713 45.5638C35.713 45.5638 41.5198 51.8081 48.0897 45.2316" stroke="#2D265A" stroke-width="2.4" stroke-linecap="round" stroke-linejoin="round"/>
</svg>
